<?xml version="1.0" encoding="utf-8"?>
<!-- Generator: Adobe Illustrator 17.0.0, SVG Export Plug-In . SVG Version: 6.00 Build 0)  -->
<!DOCTYPE svg PUBLIC "-//W3C//DTD SVG 1.1//EN" "http://www.w3.org/Graphics/SVG/1.1/DTD/svg11.dtd">
<svg version="1.1" id="Capa_1" xmlns="http://www.w3.org/2000/svg" xmlns:xlink="http://www.w3.org/1999/xlink" x="0px" y="0px"
	 width="200px" height="150px" viewBox="0 0 200 150" enable-background="new 0 0 200 150" xml:space="preserve">
<path fill="#F3990B" d="M38.214,112.815c0,5.912-4.845,10.699-10.757,10.699s-10.728-4.787-10.728-10.699
	c0-5.941,4.816-10.757,10.728-10.757S38.214,106.874,38.214,112.815z M35.59,112.815c0-4.499-3.634-8.219-8.132-8.219
	c-4.499,0-8.132,3.72-8.132,8.219c0,4.47,3.634,8.161,8.132,8.161C31.956,120.976,35.59,117.284,35.59,112.815z"/>
<path fill="#F3990B" d="M55.575,123.225h-2.97l-7.844-10.785h-2.941v10.785h-2.48v-20.532h7.123c1.298,0,2.509,0.519,3.432,1.442
	c0.923,0.923,1.442,2.134,1.442,3.432c0,2.278-1.586,4.182-3.691,4.73L55.575,123.225z M41.819,109.96h4.643
	c1.327,0,2.394-1.067,2.394-2.394s-1.067-2.393-2.394-2.393h-4.643V109.96z"/>
<path fill="#F3990B" d="M74.839,112.815c0,5.912-4.845,10.699-10.757,10.699s-10.728-4.787-10.728-10.699
	c0-5.941,4.816-10.757,10.728-10.757S74.839,106.874,74.839,112.815z M72.215,112.815c0-4.499-3.634-8.219-8.132-8.219
	c-4.499,0-8.132,3.72-8.132,8.219c0,4.47,3.634,8.161,8.132,8.161C68.581,120.976,72.215,117.284,72.215,112.815z"/>
<path fill="#1E72B7" d="M93.936,117.721l2.019,1.5c-2.047,2.74-5.191,4.297-8.565,4.297c-5.941,0-10.757-4.816-10.757-10.757
	c0-5.912,4.816-10.728,10.757-10.728c3.403,0,6.546,1.586,8.594,4.326l-2.047,1.499c-1.557-2.105-3.951-3.287-6.546-3.287
	c-4.556,0-8.219,3.662-8.219,8.19c0,4.556,3.663,8.219,8.219,8.219C89.957,120.98,92.35,119.797,93.936,117.721z"/>
<path fill="#1E72B7" d="M117.786,112.79c0,5.912-4.845,10.699-10.757,10.699c-5.912,0-10.728-4.787-10.728-10.699
	c0-5.941,4.816-10.757,10.728-10.757C112.941,102.033,117.786,106.849,117.786,112.79z M115.161,112.79
	c0-4.499-3.634-8.219-8.132-8.219c-4.499,0-8.132,3.72-8.132,8.219c0,4.47,3.634,8.161,8.132,8.161
	C111.528,120.951,115.161,117.26,115.161,112.79z M107.981,97.563h1.961l-2.394,3.086h-1.038L107.981,97.563z"/>
<path fill="#1E72B7" d="M118.91,102.668h6.633c5.825,0,10.555,4.614,10.555,10.266s-4.73,10.266-10.555,10.266h-6.633V102.668z
	 M133.531,112.934c0-4.239-3.576-7.757-7.988-7.757h-4.066v15.515h4.066C129.955,120.691,133.531,117.173,133.531,112.934z"/>
<path fill="#1E72B7" d="M138.52,102.668h2.595V123.2h-2.595V102.668z"/>
<path fill="#1E72B7" d="M162.369,109.993v9.084c-2.047,2.74-5.277,4.441-8.68,4.441c-5.912,0-10.728-4.816-10.728-10.757
	c0-5.912,4.816-10.728,10.728-10.728c2.913,0,5.623,1.153,7.613,3.172l-1.903,1.673c-1.5-1.5-3.547-2.307-5.71-2.307
	c-4.528,0-8.19,3.662-8.19,8.19c0,4.556,3.663,8.219,8.19,8.219c2.394,0,4.585-1.009,6.171-2.768v-5.681h-6.027v-2.538H162.369z"/>
<path fill="#1E72B7" d="M184.834,112.79c0,5.912-4.845,10.699-10.757,10.699s-10.728-4.787-10.728-10.699
	c0-5.941,4.816-10.757,10.728-10.757S184.834,106.849,184.834,112.79z M182.21,112.79c0-4.499-3.634-8.219-8.132-8.219
	s-8.132,3.72-8.132,8.219c0,4.47,3.634,8.161,8.132,8.161S182.21,117.26,182.21,112.79z"/>
<path fill="#1E72B7" d="M7.474,130.259c0.312,0.676,0.723,1.239,1.221,1.674c0.519,0.453,1.061,0.795,1.608,1.017
	c0.532,0.215,1.02,0.324,1.449,0.324h4.932v-3.276h-1.545c-1.701,0-2.484-0.792-2.84-1.457c-0.414-0.771-0.624-1.743-0.624-2.889
	v-7.422c0-0.773-0.13-1.425-0.386-1.937c-0.258-0.517-0.582-0.93-0.962-1.228c-0.415-0.324-0.829-0.565-1.23-0.715
	c-0.406-0.152-0.784-0.241-1.123-0.266l-0.891-0.064v-0.893v-0.139v-0.841l0.833-0.111c0.398-0.053,0.819-0.155,1.252-0.304
	c0.387-0.133,0.78-0.36,1.171-0.674c0.361-0.291,0.675-0.727,0.936-1.298c0.266-0.582,0.4-1.338,0.4-2.246v-7.051
	c0-1.112,0.209-2.073,0.62-2.858c0.355-0.678,1.137-1.488,2.844-1.488h1.545v-3.276h-4.932c-0.429,0-0.917,0.109-1.45,0.324
	c-0.542,0.22-1.08,0.567-1.597,1.031c-0.504,0.453-0.919,1.021-1.234,1.689c-0.309,0.656-0.465,1.416-0.465,2.259v8.721
	c0,0.863-0.176,1.643-0.524,2.318c-0.342,0.666-0.801,1.221-1.363,1.647c-0.535,0.406-1.11,0.707-1.709,0.894
	c-0.23,0.072-0.454,0.13-0.672,0.174v2.312c0.209,0.039,0.425,0.089,0.645,0.151c0.593,0.167,1.165,0.438,1.699,0.806
	c0.573,0.396,1.04,0.921,1.388,1.56c0.355,0.65,0.535,1.39,0.535,2.199v9.046C7.006,128.815,7.163,129.585,7.474,130.259z"/>
<polygon fill="#EE850B" points="101.182,86.97 132.202,71.052 132.202,33.599 101.182,49.516 "/>
<polygon fill="#F3990B" points="100.121,86.97 69.101,71.052 69.101,33.599 100.121,49.516 "/>
<g>
	<path fill="#FFFFFF" d="M126.747,54.072v3.856l-15.626,14.492v-3.617l11.825-10.893l-11.825,1.153l0-3.617L126.747,54.072z"/>
</g>
<g>
	<path fill="#FFFFFF" d="M90.182,56.169v3.617l-11.825-1.153l11.825,10.893v3.617L74.557,58.652l0-3.856L90.182,56.169z"/>
</g>
<polygon fill="#F8B20C" points="69.627,32.669 100.645,16.727 131.676,32.669 100.647,48.587 "/>
<g>
	<path fill="#FFFFFF" d="M108.904,32.758c0.183,4.511-3.365,8.314-7.876,8.497c-4.511,0.183-8.334-3.32-8.517-7.831
		c-0.184-4.533,3.341-8.357,7.852-8.54C104.874,24.701,108.72,28.225,108.904,32.758z M106.902,32.84
		c-0.139-3.433-3.027-6.158-6.46-6.019c-3.433,0.139-6.09,3.091-5.95,6.523c0.139,3.411,3.026,6.114,6.458,5.975
		S107.041,36.25,106.902,32.84z"/>
	<g>
		<path fill="#FFFFFF" d="M98.125,24.773c0.03-1.147,0.935-2.093,2.084-2.139c1.149-0.047,2.129,0.823,2.251,1.965
			c0.627,0.135,1.231,0.339,1.802,0.603c0.016-0.174,0.022-0.35,0.015-0.529c-0.089-2.194-1.946-3.906-4.14-3.817
			c-2.188,0.089-3.896,1.946-3.807,4.139c0.007,0.177,0.027,0.351,0.057,0.521C96.931,25.208,97.513,24.958,98.125,24.773z"/>
	</g>
	<g>
		<path fill="#FFFFFF" d="M100.442,26.821c-0.696,0.028-1.359,0.174-1.975,0.414c0.625,0.934,1.009,2.046,1.058,3.244
			c0.111,2.723-1.562,5.137-3.987,6.071c0.386,0.577,0.865,1.086,1.414,1.505c1.664-0.821,3.006-2.185,3.798-3.85
			c0.92,1.595,2.362,2.845,4.082,3.529c0.513-0.462,0.949-1.008,1.286-1.614c-2.493-0.735-4.356-3.005-4.466-5.728
			c-0.049-1.198,0.244-2.338,0.791-3.319C101.811,26.884,101.138,26.792,100.442,26.821z"/>
	</g>
	<g>
		<path fill="#FFFFFF" d="M111.994,33.36l-2.796,0.114c-0.695,0.028-1.281-0.512-1.309-1.207v0
			c-0.028-0.695,0.512-1.281,1.207-1.309l2.796-0.114c0.695-0.028,1.281,0.512,1.309,1.207l0,0
			C113.229,32.746,112.688,33.332,111.994,33.36z"/>
		<path fill="#FFFFFF" d="M109.585,39.856l-2.343-1.529c-0.582-0.38-0.746-1.16-0.366-1.743v0c0.38-0.582,1.16-0.746,1.743-0.366
			l2.343,1.529c0.582,0.38,0.746,1.16,0.366,1.743v0C110.948,40.072,110.167,40.236,109.585,39.856z"/>
		<path fill="#FFFFFF" d="M110.32,25.002c-0.463-0.519-1.259-0.565-1.778-0.102l-2.089,1.861c-0.519,0.463-0.565,1.259-0.102,1.778
			v0c0.463,0.519,1.259,0.565,1.778,0.102l2.089-1.861C110.737,26.317,110.783,25.522,110.32,25.002z"/>
	</g>
	<g>
		<path fill="#FFFFFF" d="M89.412,34.278l2.796-0.114c0.695-0.028,1.235-0.614,1.207-1.309v0c-0.028-0.695-0.614-1.235-1.309-1.207
			l-2.796,0.114c-0.695,0.028-1.235,0.614-1.207,1.309l0,0C88.131,33.766,88.717,34.306,89.412,34.278z"/>
		<path fill="#FFFFFF" d="M92.339,40.557l2.211-1.714c0.55-0.426,0.65-1.217,0.224-1.767h0c-0.426-0.55-1.217-0.65-1.767-0.224
			l-2.211,1.714c-0.55,0.426-0.65,1.217-0.224,1.767l0,0C90.999,40.883,91.79,40.983,92.339,40.557z"/>
		<path fill="#FFFFFF" d="M90.402,25.812c0.419-0.555,1.209-0.665,1.764-0.246l2.233,1.686c0.555,0.419,0.665,1.209,0.246,1.764v0
			c-0.419,0.555-1.209,0.665-1.764,0.246l-2.233-1.686C90.093,27.156,89.983,26.367,90.402,25.812z"/>
	</g>
</g>
<path fill="#1E72B7" d="M194.882,115.284c0.535-0.406,1.11-0.707,1.709-0.894c0.229-0.072,0.453-0.13,0.671-0.174v-2.312
	c-0.209-0.039-0.424-0.089-0.645-0.151c-0.593-0.167-1.165-0.438-1.699-0.806c-0.573-0.396-1.039-0.92-1.388-1.56
	c-0.355-0.65-0.535-1.39-0.535-2.199v-9.046c0-0.845-0.158-1.615-0.468-2.288c-0.312-0.676-0.723-1.239-1.221-1.674
	c-0.519-0.452-1.06-0.794-1.608-1.017c-0.532-0.215-1.02-0.324-1.449-0.324h-4.932v3.276h1.545c1.701,0,2.483,0.792,2.84,1.457
	c0.414,0.77,0.624,1.742,0.624,2.889v7.422c0,0.773,0.13,1.424,0.386,1.937c0.258,0.516,0.582,0.929,0.963,1.227
	c0.415,0.324,0.829,0.565,1.23,0.716c0.406,0.152,0.784,0.241,1.123,0.266l0.891,0.064v0.893v0.139v0.841l-0.833,0.111
	c-0.398,0.053-0.82,0.155-1.252,0.304c-0.387,0.133-0.781,0.36-1.171,0.674c-0.361,0.291-0.675,0.727-0.936,1.298
	c-0.266,0.582-0.4,1.338-0.4,2.246v7.051c0,1.113-0.209,2.074-0.62,2.858c-0.355,0.678-1.137,1.488-2.844,1.488h-1.545v3.276h4.932
	c0.429,0,0.917-0.109,1.45-0.324c0.542-0.22,1.08-0.567,1.598-1.031c0.504-0.452,0.919-1.021,1.233-1.689
	c0.309-0.656,0.465-1.416,0.465-2.258v-8.721c0-0.863,0.176-1.643,0.524-2.318C193.861,116.265,194.32,115.711,194.882,115.284z"/>
</svg>
